<?xml version="1.0" encoding="UTF-8" standalone="no"?>
<!DOCTYPE svg PUBLIC "-//W3C//DTD SVG 1.1//EN"
 "http://www.w3.org/Graphics/SVG/1.1/DTD/svg11.dtd">
<!-- Generated by graphviz version 2.40.1 (20161225.0304)
 -->
<!-- Title: %3 Pages: 1 -->
<svg width="3068pt" height="476pt"
 viewBox="0.00 0.00 3067.54 476.00" xmlns="http://www.w3.org/2000/svg" xmlns:xlink="http://www.w3.org/1999/xlink">
<g id="graph0" class="graph" transform="scale(1 1) rotate(0) translate(4 472)">
<title>%3</title>
<polygon fill="#ffffff" stroke="transparent" points="-4,4 -4,-472 3063.5381,-472 3063.5381,4 -4,4"/>
<!-- 1 -->
<g id="node1" class="node">
<title>1</title>
<ellipse fill="none" stroke="#000000" cx="1067.8939" cy="-450" rx="68.7879" ry="18"/>
<text text-anchor="middle" x="1067.8939" y="-446.3" font-family="Times,serif" font-size="14.00" fill="#000000">is_valid(self=...)</text>
</g>
<!-- 2 -->
<g id="node2" class="node">
<title>2</title>
<ellipse fill="none" stroke="#000000" cx="1067.8939" cy="-378" rx="79.0865" ry="18"/>
<text text-anchor="middle" x="1067.8939" y="-374.3" font-family="Times,serif" font-size="14.00" fill="#000000">expression(self=...)</text>
</g>
<!-- 1&#45;&gt;2 -->
<g id="edge1" class="edge">
<title>1&#45;&gt;2</title>
<path fill="none" stroke="#000000" d="M1067.8939,-431.8314C1067.8939,-424.131 1067.8939,-414.9743 1067.8939,-406.4166"/>
<polygon fill="#000000" stroke="#000000" points="1071.394,-406.4132 1067.8939,-396.4133 1064.394,-406.4133 1071.394,-406.4132"/>
</g>
<!-- 3 -->
<g id="node3" class="node">
<title>3</title>
<ellipse fill="none" stroke="#000000" cx="221.8939" cy="-306" rx="116.9792" ry="18"/>
<text text-anchor="middle" x="221.8939" y="-302.3" font-family="Times,serif" font-size="14.00" fill="#000000">parenthese_ouvrante(self=...)</text>
</g>
<!-- 2&#45;&gt;3 -->
<g id="edge2" class="edge">
<title>2&#45;&gt;3</title>
<path fill="none" stroke="#000000" d="M993.5585,-371.6736C844.9403,-359.0252 510.3735,-330.5515 334.6159,-315.5934"/>
<polygon fill="#000000" stroke="#000000" points="334.823,-312.0984 324.5622,-314.7377 334.2293,-319.0732 334.823,-312.0984"/>
</g>
<!-- 6 -->
<g id="node6" class="node">
<title>6</title>
<ellipse fill="none" stroke="#000000" cx="522.8939" cy="-306" rx="67.6881" ry="18"/>
<text text-anchor="middle" x="522.8939" y="-302.3" font-family="Times,serif" font-size="14.00" fill="#000000">espaces(self=...)</text>
</g>
<!-- 2&#45;&gt;6 -->
<g id="edge5" class="edge">
<title>2&#45;&gt;6</title>
<path fill="none" stroke="#000000" d="M997.8249,-369.3733C914.2329,-358.9982 770.2808,-340.8675 646.8939,-324 629.2373,-321.5863 610.183,-318.8741 592.4337,-316.3016"/>
<polygon fill="#000000" stroke="#000000" points="592.5541,-312.7824 582.1544,-314.8065 591.5464,-319.7095 592.5541,-312.7824"/>
</g>
<!-- 8 -->
<g id="node8" class="node">
<title>8</title>
<ellipse fill="none" stroke="#000000" cx="729.8939" cy="-306" rx="74.187" ry="18"/>
<text text-anchor="middle" x="729.8939" y="-302.3" font-family="Times,serif" font-size="14.00" fill="#000000">operande(self=...)</text>
</g>
<!-- 2&#45;&gt;8 -->
<g id="edge7" class="edge">
<title>2&#45;&gt;8</title>
<path fill="none" stroke="#000000" d="M1009.7896,-365.6228C950.3403,-352.959 858.1123,-333.3128 795.9319,-320.0673"/>
<polygon fill="#000000" stroke="#000000" points="796.3471,-316.5773 785.8373,-317.9169 794.8886,-323.4236 796.3471,-316.5773"/>
</g>
<!-- 14 -->
<g id="node14" class="node">
<title>14</title>
<ellipse fill="none" stroke="#000000" cx="913.8939" cy="-306" rx="67.6881" ry="18"/>
<text text-anchor="middle" x="913.8939" y="-302.3" font-family="Times,serif" font-size="14.00" fill="#000000">espaces(self=...)</text>
</g>
<!-- 2&#45;&gt;14 -->
<g id="edge13" class="edge">
<title>2&#45;&gt;14</title>
<path fill="none" stroke="#000000" d="M1032.9489,-361.6621C1010.3076,-351.0766 980.6685,-337.2193 956.6277,-325.9794"/>
<polygon fill="#000000" stroke="#000000" points="957.9205,-322.7203 947.3793,-321.6555 954.9558,-329.0615 957.9205,-322.7203"/>
</g>
<!-- 18 -->
<g id="node18" class="node">
<title>18</title>
<ellipse fill="none" stroke="#000000" cx="1148.8939" cy="-306" rx="75.2868" ry="18"/>
<text text-anchor="middle" x="1148.8939" y="-302.3" font-family="Times,serif" font-size="14.00" fill="#000000">operateur(self=...)</text>
</g>
<!-- 2&#45;&gt;18 -->
<g id="edge17" class="edge">
<title>2&#45;&gt;18</title>
<path fill="none" stroke="#000000" d="M1087.9164,-360.2022C1098.0195,-351.2217 1110.4299,-340.1902 1121.4114,-330.4289"/>
<polygon fill="#000000" stroke="#000000" points="1123.9529,-332.8526 1129.1017,-323.593 1119.3023,-327.6208 1123.9529,-332.8526"/>
</g>
<!-- 21 -->
<g id="node21" class="node">
<title>21</title>
<ellipse fill="none" stroke="#000000" cx="1530.8939" cy="-306" rx="67.6881" ry="18"/>
<text text-anchor="middle" x="1530.8939" y="-302.3" font-family="Times,serif" font-size="14.00" fill="#000000">espaces(self=...)</text>
</g>
<!-- 2&#45;&gt;21 -->
<g id="edge20" class="edge">
<title>2&#45;&gt;21</title>
<path fill="none" stroke="#000000" d="M1133.7388,-367.7606C1220.8822,-354.2092 1373.7907,-330.4307 1462.2948,-316.6677"/>
<polygon fill="#000000" stroke="#000000" points="1462.8897,-320.1173 1472.2331,-315.1222 1461.814,-313.2005 1462.8897,-320.1173"/>
</g>
<!-- 25 -->
<g id="node25" class="node">
<title>25</title>
<ellipse fill="none" stroke="#000000" cx="1916.8939" cy="-306" rx="74.187" ry="18"/>
<text text-anchor="middle" x="1916.8939" y="-302.3" font-family="Times,serif" font-size="14.00" fill="#000000">operande(self=...)</text>
</g>
<!-- 2&#45;&gt;25 -->
<g id="edge24" class="edge">
<title>2&#45;&gt;25</title>
<path fill="none" stroke="#000000" d="M1142.4929,-371.6736C1301.5219,-358.187 1672.7113,-326.7081 1836.6379,-312.8062"/>
<polygon fill="#000000" stroke="#000000" points="1836.9895,-316.289 1846.6579,-311.9564 1836.3979,-309.314 1836.9895,-316.289"/>
</g>
<!-- 56 -->
<g id="node56" class="node">
<title>56</title>
<ellipse fill="none" stroke="#000000" cx="2249.8939" cy="-306" rx="118.0794" ry="18"/>
<text text-anchor="middle" x="2249.8939" y="-302.3" font-family="Times,serif" font-size="14.00" fill="#000000">parenthese_fermante(self=...)</text>
</g>
<!-- 2&#45;&gt;56 -->
<g id="edge55" class="edge">
<title>2&#45;&gt;56</title>
<path fill="none" stroke="#000000" d="M1145.2441,-373.8854C1304.9777,-365.3075 1682.8914,-344.5946 1999.8939,-324 2043.6122,-321.1598 2091.6103,-317.7695 2133.7602,-314.7012"/>
<polygon fill="#000000" stroke="#000000" points="2134.0609,-318.1886 2143.7795,-313.9699 2133.5512,-311.2072 2134.0609,-318.1886"/>
</g>
<!-- 4 -->
<g id="node4" class="node">
<title>4</title>
<ellipse fill="none" stroke="#000000" cx="68.8939" cy="-234" rx="68.7879" ry="18"/>
<text text-anchor="middle" x="68.8939" y="-230.3" font-family="Times,serif" font-size="14.00" fill="#000000">courant(self=...)</text>
</g>
<!-- 3&#45;&gt;4 -->
<g id="edge3" class="edge">
<title>3&#45;&gt;4</title>
<path fill="none" stroke="#000000" d="M185.2466,-288.7542C163.102,-278.3332 134.7761,-265.0034 111.6175,-254.1052"/>
<polygon fill="#000000" stroke="#000000" points="112.9077,-250.8442 102.3692,-249.7531 109.9271,-257.178 112.9077,-250.8442"/>
</g>
<!-- 5 -->
<g id="node5" class="node">
<title>5</title>
<ellipse fill="none" stroke="#000000" cx="221.8939" cy="-234" rx="65.7887" ry="18"/>
<text text-anchor="middle" x="221.8939" y="-230.3" font-family="Times,serif" font-size="14.00" fill="#000000">avance(self=...)</text>
</g>
<!-- 3&#45;&gt;5 -->
<g id="edge4" class="edge">
<title>3&#45;&gt;5</title>
<path fill="none" stroke="#000000" d="M221.8939,-287.8314C221.8939,-280.131 221.8939,-270.9743 221.8939,-262.4166"/>
<polygon fill="#000000" stroke="#000000" points="225.394,-262.4132 221.8939,-252.4133 218.394,-262.4133 225.394,-262.4132"/>
</g>
<!-- 7 -->
<g id="node7" class="node">
<title>7</title>
<ellipse fill="none" stroke="#000000" cx="374.8939" cy="-234" rx="68.7879" ry="18"/>
<text text-anchor="middle" x="374.8939" y="-230.3" font-family="Times,serif" font-size="14.00" fill="#000000">courant(self=...)</text>
</g>
<!-- 6&#45;&gt;7 -->
<g id="edge6" class="edge">
<title>6&#45;&gt;7</title>
<path fill="none" stroke="#000000" d="M490.4147,-290.1993C468.7053,-279.638 439.9469,-265.6474 416.5553,-254.2677"/>
<polygon fill="#000000" stroke="#000000" points="418.0763,-251.1155 407.5528,-249.8881 415.014,-257.4101 418.0763,-251.1155"/>
</g>
<!-- 9 -->
<g id="node9" class="node">
<title>9</title>
<ellipse fill="none" stroke="#000000" cx="530.8939" cy="-234" rx="69.5877" ry="18"/>
<text text-anchor="middle" x="530.8939" y="-230.3" font-family="Times,serif" font-size="14.00" fill="#000000">nombre(self=...)</text>
</g>
<!-- 8&#45;&gt;9 -->
<g id="edge8" class="edge">
<title>8&#45;&gt;9</title>
<path fill="none" stroke="#000000" d="M688.177,-290.9064C656.9538,-279.6096 614.1134,-264.1096 581.0272,-252.1387"/>
<polygon fill="#000000" stroke="#000000" points="582.1291,-248.8154 571.5348,-248.7043 579.7474,-255.3978 582.1291,-248.8154"/>
</g>
<!-- 10 -->
<g id="node10" class="node">
<title>10</title>
<ellipse fill="none" stroke="#000000" cx="298.8939" cy="-162" rx="68.7879" ry="18"/>
<text text-anchor="middle" x="298.8939" y="-158.3" font-family="Times,serif" font-size="14.00" fill="#000000">courant(self=...)</text>
</g>
<!-- 9&#45;&gt;10 -->
<g id="edge9" class="edge">
<title>9&#45;&gt;10</title>
<path fill="none" stroke="#000000" d="M486.162,-220.1177C448.2093,-208.3393 393.6389,-191.4036 353.1889,-178.8502"/>
<polygon fill="#000000" stroke="#000000" points="354.0766,-175.461 343.4885,-175.8397 352.0017,-182.1465 354.0766,-175.461"/>
</g>
<!-- 11 -->
<g id="node11" class="node">
<title>11</title>
<ellipse fill="none" stroke="#000000" cx="454.8939" cy="-162" rx="68.7879" ry="18"/>
<text text-anchor="middle" x="454.8939" y="-158.3" font-family="Times,serif" font-size="14.00" fill="#000000">courant(self=...)</text>
</g>
<!-- 9&#45;&gt;11 -->
<g id="edge10" class="edge">
<title>9&#45;&gt;11</title>
<path fill="none" stroke="#000000" d="M512.4964,-216.5708C502.9518,-207.5286 491.1352,-196.3338 480.6934,-186.4417"/>
<polygon fill="#000000" stroke="#000000" points="483.052,-183.8549 473.3854,-179.5182 478.2378,-188.9366 483.052,-183.8549"/>
</g>
<!-- 12 -->
<g id="node12" class="node">
<title>12</title>
<ellipse fill="none" stroke="#000000" cx="607.8939" cy="-162" rx="65.7887" ry="18"/>
<text text-anchor="middle" x="607.8939" y="-158.3" font-family="Times,serif" font-size="14.00" fill="#000000">avance(self=...)</text>
</g>
<!-- 9&#45;&gt;12 -->
<g id="edge11" class="edge">
<title>9&#45;&gt;12</title>
<path fill="none" stroke="#000000" d="M549.5334,-216.5708C559.2036,-207.5286 571.1758,-196.3338 581.7549,-186.4417"/>
<polygon fill="#000000" stroke="#000000" points="584.2453,-188.9047 589.1591,-179.5182 579.4643,-183.7917 584.2453,-188.9047"/>
</g>
<!-- 13 -->
<g id="node13" class="node">
<title>13</title>
<ellipse fill="none" stroke="#000000" cx="760.8939" cy="-162" rx="68.7879" ry="18"/>
<text text-anchor="middle" x="760.8939" y="-158.3" font-family="Times,serif" font-size="14.00" fill="#000000">courant(self=...)</text>
</g>
<!-- 9&#45;&gt;13 -->
<g id="edge12" class="edge">
<title>9&#45;&gt;13</title>
<path fill="none" stroke="#000000" d="M575.2402,-220.1177C612.8657,-208.3393 666.9657,-191.4036 707.067,-178.8502"/>
<polygon fill="#000000" stroke="#000000" points="708.186,-182.1674 716.6837,-175.8397 706.0947,-175.4871 708.186,-182.1674"/>
</g>
<!-- 15 -->
<g id="node15" class="node">
<title>15</title>
<ellipse fill="none" stroke="#000000" cx="686.8939" cy="-234" rx="68.7879" ry="18"/>
<text text-anchor="middle" x="686.8939" y="-230.3" font-family="Times,serif" font-size="14.00" fill="#000000">courant(self=...)</text>
</g>
<!-- 14&#45;&gt;15 -->
<g id="edge14" class="edge">
<title>14&#45;&gt;15</title>
<path fill="none" stroke="#000000" d="M870.3946,-292.2029C833.4853,-280.496 780.373,-263.6498 740.7773,-251.0908"/>
<polygon fill="#000000" stroke="#000000" points="741.6101,-247.6831 731.0199,-247.9959 739.4937,-254.3556 741.6101,-247.6831"/>
</g>
<!-- 16 -->
<g id="node16" class="node">
<title>16</title>
<ellipse fill="none" stroke="#000000" cx="839.8939" cy="-234" rx="65.7887" ry="18"/>
<text text-anchor="middle" x="839.8939" y="-230.3" font-family="Times,serif" font-size="14.00" fill="#000000">avance(self=...)</text>
</g>
<!-- 14&#45;&gt;16 -->
<g id="edge15" class="edge">
<title>14&#45;&gt;16</title>
<path fill="none" stroke="#000000" d="M895.9806,-288.5708C886.7774,-279.6164 875.4046,-268.551 865.311,-258.7302"/>
<polygon fill="#000000" stroke="#000000" points="867.5068,-255.9833 857.8987,-251.5182 862.6253,-261.0004 867.5068,-255.9833"/>
</g>
<!-- 17 -->
<g id="node17" class="node">
<title>17</title>
<ellipse fill="none" stroke="#000000" cx="992.8939" cy="-234" rx="68.7879" ry="18"/>
<text text-anchor="middle" x="992.8939" y="-230.3" font-family="Times,serif" font-size="14.00" fill="#000000">courant(self=...)</text>
</g>
<!-- 14&#45;&gt;17 -->
<g id="edge16" class="edge">
<title>14&#45;&gt;17</title>
<path fill="none" stroke="#000000" d="M933.0176,-288.5708C942.9389,-279.5286 955.222,-268.3338 966.0759,-258.4417"/>
<polygon fill="#000000" stroke="#000000" points="968.6392,-260.8411 973.6725,-251.5182 963.9239,-255.6675 968.6392,-260.8411"/>
</g>
<!-- 19 -->
<g id="node19" class="node">
<title>19</title>
<ellipse fill="none" stroke="#000000" cx="1148.8939" cy="-234" rx="68.7879" ry="18"/>
<text text-anchor="middle" x="1148.8939" y="-230.3" font-family="Times,serif" font-size="14.00" fill="#000000">courant(self=...)</text>
</g>
<!-- 18&#45;&gt;19 -->
<g id="edge18" class="edge">
<title>18&#45;&gt;19</title>
<path fill="none" stroke="#000000" d="M1148.8939,-287.8314C1148.8939,-280.131 1148.8939,-270.9743 1148.8939,-262.4166"/>
<polygon fill="#000000" stroke="#000000" points="1152.394,-262.4132 1148.8939,-252.4133 1145.394,-262.4133 1152.394,-262.4132"/>
</g>
<!-- 20 -->
<g id="node20" class="node">
<title>20</title>
<ellipse fill="none" stroke="#000000" cx="1301.8939" cy="-234" rx="65.7887" ry="18"/>
<text text-anchor="middle" x="1301.8939" y="-230.3" font-family="Times,serif" font-size="14.00" fill="#000000">avance(self=...)</text>
</g>
<!-- 18&#45;&gt;20 -->
<g id="edge19" class="edge">
<title>18&#45;&gt;20</title>
<path fill="none" stroke="#000000" d="M1183.2301,-289.8418C1205.7862,-279.2271 1235.4544,-265.2656 1259.4824,-253.9583"/>
<polygon fill="#000000" stroke="#000000" points="1261.1653,-257.0347 1268.7231,-249.6098 1258.1846,-250.7009 1261.1653,-257.0347"/>
</g>
<!-- 22 -->
<g id="node22" class="node">
<title>22</title>
<ellipse fill="none" stroke="#000000" cx="1454.8939" cy="-234" rx="68.7879" ry="18"/>
<text text-anchor="middle" x="1454.8939" y="-230.3" font-family="Times,serif" font-size="14.00" fill="#000000">courant(self=...)</text>
</g>
<!-- 21&#45;&gt;22 -->
<g id="edge21" class="edge">
<title>21&#45;&gt;22</title>
<path fill="none" stroke="#000000" d="M1512.4964,-288.5708C1502.9518,-279.5286 1491.1352,-268.3338 1480.6934,-258.4417"/>
<polygon fill="#000000" stroke="#000000" points="1483.052,-255.8549 1473.3854,-251.5182 1478.2378,-260.9366 1483.052,-255.8549"/>
</g>
<!-- 23 -->
<g id="node23" class="node">
<title>23</title>
<ellipse fill="none" stroke="#000000" cx="1607.8939" cy="-234" rx="65.7887" ry="18"/>
<text text-anchor="middle" x="1607.8939" y="-230.3" font-family="Times,serif" font-size="14.00" fill="#000000">avance(self=...)</text>
</g>
<!-- 21&#45;&gt;23 -->
<g id="edge22" class="edge">
<title>21&#45;&gt;23</title>
<path fill="none" stroke="#000000" d="M1549.5334,-288.5708C1559.2036,-279.5286 1571.1758,-268.3338 1581.7549,-258.4417"/>
<polygon fill="#000000" stroke="#000000" points="1584.2453,-260.9047 1589.1591,-251.5182 1579.4643,-255.7917 1584.2453,-260.9047"/>
</g>
<!-- 24 -->
<g id="node24" class="node">
<title>24</title>
<ellipse fill="none" stroke="#000000" cx="1760.8939" cy="-234" rx="68.7879" ry="18"/>
<text text-anchor="middle" x="1760.8939" y="-230.3" font-family="Times,serif" font-size="14.00" fill="#000000">courant(self=...)</text>
</g>
<!-- 21&#45;&gt;24 -->
<g id="edge23" class="edge">
<title>21&#45;&gt;24</title>
<path fill="none" stroke="#000000" d="M1574.6965,-292.2879C1612.264,-280.5276 1666.5436,-263.5357 1706.813,-250.9297"/>
<polygon fill="#000000" stroke="#000000" points="1707.9732,-254.234 1716.4709,-247.9063 1705.882,-247.5537 1707.9732,-254.234"/>
</g>
<!-- 26 -->
<g id="node26" class="node">
<title>26</title>
<ellipse fill="none" stroke="#000000" cx="1916.8939" cy="-234" rx="69.5877" ry="18"/>
<text text-anchor="middle" x="1916.8939" y="-230.3" font-family="Times,serif" font-size="14.00" fill="#000000">nombre(self=...)</text>
</g>
<!-- 25&#45;&gt;26 -->
<g id="edge25" class="edge">
<title>25&#45;&gt;26</title>
<path fill="none" stroke="#000000" d="M1916.8939,-287.8314C1916.8939,-280.131 1916.8939,-270.9743 1916.8939,-262.4166"/>
<polygon fill="#000000" stroke="#000000" points="1920.394,-262.4132 1916.8939,-252.4133 1913.394,-262.4133 1920.394,-262.4132"/>
</g>
<!-- 28 -->
<g id="node28" class="node">
<title>28</title>
<ellipse fill="none" stroke="#000000" cx="2083.8939" cy="-234" rx="79.0865" ry="18"/>
<text text-anchor="middle" x="2083.8939" y="-230.3" font-family="Times,serif" font-size="14.00" fill="#000000">expression(self=...)</text>
</g>
<!-- 25&#45;&gt;28 -->
<g id="edge27" class="edge">
<title>25&#45;&gt;28</title>
<path fill="none" stroke="#000000" d="M1953.5427,-290.1993C1978.1703,-279.5814 2010.8375,-265.4974 2037.3079,-254.085"/>
<polygon fill="#000000" stroke="#000000" points="2038.9562,-257.1858 2046.7534,-250.0127 2036.1848,-250.7578 2038.9562,-257.1858"/>
</g>
<!-- 27 -->
<g id="node27" class="node">
<title>27</title>
<ellipse fill="none" stroke="#000000" cx="1356.8939" cy="-162" rx="68.7879" ry="18"/>
<text text-anchor="middle" x="1356.8939" y="-158.3" font-family="Times,serif" font-size="14.00" fill="#000000">courant(self=...)</text>
</g>
<!-- 26&#45;&gt;27 -->
<g id="edge26" class="edge">
<title>26&#45;&gt;27</title>
<path fill="none" stroke="#000000" d="M1866.7432,-221.3548C1857.5244,-219.3365 1847.9523,-217.4417 1838.8939,-216 1660.8677,-187.6653 1612.9201,-208.3347 1434.8939,-180 1429.0029,-179.0624 1422.8947,-177.9332 1416.8077,-176.703"/>
<polygon fill="#000000" stroke="#000000" points="1417.1331,-173.1946 1406.6258,-174.5533 1415.6871,-180.0436 1417.1331,-173.1946"/>
</g>
<!-- 29 -->
<g id="node29" class="node">
<title>29</title>
<ellipse fill="none" stroke="#000000" cx="1560.8939" cy="-162" rx="116.9792" ry="18"/>
<text text-anchor="middle" x="1560.8939" y="-158.3" font-family="Times,serif" font-size="14.00" fill="#000000">parenthese_ouvrante(self=...)</text>
</g>
<!-- 28&#45;&gt;29 -->
<g id="edge28" class="edge">
<title>28&#45;&gt;29</title>
<path fill="none" stroke="#000000" d="M2026.2734,-221.4769C2016.1757,-219.4934 2005.7484,-217.5789 1995.8939,-216 1859.3729,-194.1263 1824.0084,-197.7781 1686.8939,-180 1676.847,-178.6973 1666.3574,-177.2839 1655.9059,-175.8412"/>
<polygon fill="#000000" stroke="#000000" points="1656.2996,-172.3624 1645.9128,-174.4517 1655.3355,-179.2957 1656.2996,-172.3624"/>
</g>
<!-- 32 -->
<g id="node32" class="node">
<title>32</title>
<ellipse fill="none" stroke="#000000" cx="1763.8939" cy="-162" rx="67.6881" ry="18"/>
<text text-anchor="middle" x="1763.8939" y="-158.3" font-family="Times,serif" font-size="14.00" fill="#000000">espaces(self=...)</text>
</g>
<!-- 28&#45;&gt;32 -->
<g id="edge31" class="edge">
<title>28&#45;&gt;32</title>
<path fill="none" stroke="#000000" d="M2026.4096,-221.412C1977.1453,-210.5794 1904.3077,-194.4575 1840.8939,-180 1835.6235,-178.7984 1830.1529,-177.5407 1824.6681,-176.2724"/>
<polygon fill="#000000" stroke="#000000" points="1825.353,-172.8384 1814.8207,-173.9881 1823.7711,-179.6573 1825.353,-172.8384"/>
</g>
<!-- 34 -->
<g id="node34" class="node">
<title>34</title>
<ellipse fill="none" stroke="#000000" cx="1923.8939" cy="-162" rx="74.187" ry="18"/>
<text text-anchor="middle" x="1923.8939" y="-158.3" font-family="Times,serif" font-size="14.00" fill="#000000">operande(self=...)</text>
</g>
<!-- 28&#45;&gt;34 -->
<g id="edge33" class="edge">
<title>28&#45;&gt;34</title>
<path fill="none" stroke="#000000" d="M2047.9868,-217.8418C2024.4577,-207.2537 1993.5283,-193.3355 1968.4345,-182.0433"/>
<polygon fill="#000000" stroke="#000000" points="1969.6858,-178.7684 1959.1303,-177.8564 1966.8132,-185.1518 1969.6858,-178.7684"/>
</g>
<!-- 40 -->
<g id="node40" class="node">
<title>40</title>
<ellipse fill="none" stroke="#000000" cx="2083.8939" cy="-162" rx="67.6881" ry="18"/>
<text text-anchor="middle" x="2083.8939" y="-158.3" font-family="Times,serif" font-size="14.00" fill="#000000">espaces(self=...)</text>
</g>
<!-- 28&#45;&gt;40 -->
<g id="edge39" class="edge">
<title>28&#45;&gt;40</title>
<path fill="none" stroke="#000000" d="M2083.8939,-215.8314C2083.8939,-208.131 2083.8939,-198.9743 2083.8939,-190.4166"/>
<polygon fill="#000000" stroke="#000000" points="2087.394,-190.4132 2083.8939,-180.4133 2080.394,-190.4133 2087.394,-190.4132"/>
</g>
<!-- 42 -->
<g id="node42" class="node">
<title>42</title>
<ellipse fill="none" stroke="#000000" cx="2244.8939" cy="-162" rx="75.2868" ry="18"/>
<text text-anchor="middle" x="2244.8939" y="-158.3" font-family="Times,serif" font-size="14.00" fill="#000000">operateur(self=...)</text>
</g>
<!-- 28&#45;&gt;42 -->
<g id="edge41" class="edge">
<title>28&#45;&gt;42</title>
<path fill="none" stroke="#000000" d="M2120.0254,-217.8418C2143.6194,-207.2905 2174.6082,-193.4321 2199.8117,-182.161"/>
<polygon fill="#000000" stroke="#000000" points="2201.4605,-185.2577 2209.1604,-177.9802 2198.6028,-178.8676 2201.4605,-185.2577"/>
</g>
<!-- 45 -->
<g id="node45" class="node">
<title>45</title>
<ellipse fill="none" stroke="#000000" cx="2415.8939" cy="-162" rx="67.6881" ry="18"/>
<text text-anchor="middle" x="2415.8939" y="-158.3" font-family="Times,serif" font-size="14.00" fill="#000000">espaces(self=...)</text>
</g>
<!-- 28&#45;&gt;45 -->
<g id="edge44" class="edge">
<title>28&#45;&gt;45</title>
<path fill="none" stroke="#000000" d="M2141.3449,-221.5408C2200.503,-208.7113 2292.4139,-188.7788 2353.3668,-175.5601"/>
<polygon fill="#000000" stroke="#000000" points="2354.2167,-178.9572 2363.2478,-173.4172 2352.7331,-172.1162 2354.2167,-178.9572"/>
</g>
<!-- 47 -->
<g id="node47" class="node">
<title>47</title>
<ellipse fill="none" stroke="#000000" cx="2612.8939" cy="-162" rx="74.187" ry="18"/>
<text text-anchor="middle" x="2612.8939" y="-158.3" font-family="Times,serif" font-size="14.00" fill="#000000">operande(self=...)</text>
</g>
<!-- 28&#45;&gt;47 -->
<g id="edge46" class="edge">
<title>28&#45;&gt;47</title>
<path fill="none" stroke="#000000" d="M2141.5087,-221.4412C2151.607,-219.4616 2162.036,-217.5577 2171.8939,-216 2313.6955,-193.5927 2350.5495,-198.6512 2492.8939,-180 2508.315,-177.9794 2524.8218,-175.6272 2540.5056,-173.3027"/>
<polygon fill="#000000" stroke="#000000" points="2541.3008,-176.7228 2550.6735,-171.7829 2540.2659,-169.7997 2541.3008,-176.7228"/>
</g>
<!-- 53 -->
<g id="node53" class="node">
<title>53</title>
<ellipse fill="none" stroke="#000000" cx="2840.8939" cy="-162" rx="118.0794" ry="18"/>
<text text-anchor="middle" x="2840.8939" y="-158.3" font-family="Times,serif" font-size="14.00" fill="#000000">parenthese_fermante(self=...)</text>
</g>
<!-- 28&#45;&gt;53 -->
<g id="edge52" class="edge">
<title>28&#45;&gt;53</title>
<path fill="none" stroke="#000000" d="M2140.5096,-221.2645C2150.9068,-219.2553 2161.6957,-217.387 2171.8939,-216 2403.2022,-184.5403 2463.532,-202.3873 2695.8939,-180 2710.7036,-178.5731 2726.3384,-176.8552 2741.643,-175.0546"/>
<polygon fill="#000000" stroke="#000000" points="2742.1257,-178.5219 2751.6405,-173.8615 2741.2962,-171.5712 2742.1257,-178.5219"/>
</g>
<!-- 30 -->
<g id="node30" class="node">
<title>30</title>
<ellipse fill="none" stroke="#000000" cx="1423.8939" cy="-90" rx="68.7879" ry="18"/>
<text text-anchor="middle" x="1423.8939" y="-86.3" font-family="Times,serif" font-size="14.00" fill="#000000">courant(self=...)</text>
</g>
<!-- 29&#45;&gt;30 -->
<g id="edge29" class="edge">
<title>29&#45;&gt;30</title>
<path fill="none" stroke="#000000" d="M1527.73,-144.5708C1508.5016,-134.4653 1484.1576,-121.6714 1463.8747,-111.0118"/>
<polygon fill="#000000" stroke="#000000" points="1465.3546,-107.8357 1454.8743,-106.2817 1462.098,-114.0321 1465.3546,-107.8357"/>
</g>
<!-- 31 -->
<g id="node31" class="node">
<title>31</title>
<ellipse fill="none" stroke="#000000" cx="1576.8939" cy="-90" rx="65.7887" ry="18"/>
<text text-anchor="middle" x="1576.8939" y="-86.3" font-family="Times,serif" font-size="14.00" fill="#000000">avance(self=...)</text>
</g>
<!-- 29&#45;&gt;31 -->
<g id="edge30" class="edge">
<title>29&#45;&gt;31</title>
<path fill="none" stroke="#000000" d="M1564.9314,-143.8314C1566.6426,-136.131 1568.6774,-126.9743 1570.5791,-118.4166"/>
<polygon fill="#000000" stroke="#000000" points="1574.0493,-118.9344 1572.802,-108.4133 1567.216,-117.4159 1574.0493,-118.9344"/>
</g>
<!-- 33 -->
<g id="node33" class="node">
<title>33</title>
<ellipse fill="none" stroke="#000000" cx="1754.8939" cy="-90" rx="68.7879" ry="18"/>
<text text-anchor="middle" x="1754.8939" y="-86.3" font-family="Times,serif" font-size="14.00" fill="#000000">courant(self=...)</text>
</g>
<!-- 32&#45;&gt;33 -->
<g id="edge32" class="edge">
<title>32&#45;&gt;33</title>
<path fill="none" stroke="#000000" d="M1761.6228,-143.8314C1760.6603,-136.131 1759.5157,-126.9743 1758.446,-118.4166"/>
<polygon fill="#000000" stroke="#000000" points="1761.909,-117.9019 1757.1955,-108.4133 1754.963,-118.7702 1761.909,-117.9019"/>
</g>
<!-- 35 -->
<g id="node35" class="node">
<title>35</title>
<ellipse fill="none" stroke="#000000" cx="1910.8939" cy="-90" rx="69.5877" ry="18"/>
<text text-anchor="middle" x="1910.8939" y="-86.3" font-family="Times,serif" font-size="14.00" fill="#000000">nombre(self=...)</text>
</g>
<!-- 34&#45;&gt;35 -->
<g id="edge34" class="edge">
<title>34&#45;&gt;35</title>
<path fill="none" stroke="#000000" d="M1920.6134,-143.8314C1919.2231,-136.131 1917.5698,-126.9743 1916.0247,-118.4166"/>
<polygon fill="#000000" stroke="#000000" points="1919.4397,-117.6322 1914.2185,-108.4133 1912.5511,-118.8761 1919.4397,-117.6322"/>
</g>
<!-- 36 -->
<g id="node36" class="node">
<title>36</title>
<ellipse fill="none" stroke="#000000" cx="1677.8939" cy="-18" rx="68.7879" ry="18"/>
<text text-anchor="middle" x="1677.8939" y="-14.3" font-family="Times,serif" font-size="14.00" fill="#000000">courant(self=...)</text>
</g>
<!-- 35&#45;&gt;36 -->
<g id="edge35" class="edge">
<title>35&#45;&gt;36</title>
<path fill="none" stroke="#000000" d="M1865.9691,-76.1177C1827.8529,-64.3393 1773.0473,-47.4036 1732.4229,-34.8502"/>
<polygon fill="#000000" stroke="#000000" points="1733.2683,-31.4482 1722.6807,-31.8397 1731.2016,-38.1361 1733.2683,-31.4482"/>
</g>
<!-- 37 -->
<g id="node37" class="node">
<title>37</title>
<ellipse fill="none" stroke="#000000" cx="1833.8939" cy="-18" rx="68.7879" ry="18"/>
<text text-anchor="middle" x="1833.8939" y="-14.3" font-family="Times,serif" font-size="14.00" fill="#000000">courant(self=...)</text>
</g>
<!-- 35&#45;&gt;37 -->
<g id="edge36" class="edge">
<title>35&#45;&gt;37</title>
<path fill="none" stroke="#000000" d="M1892.2543,-72.5708C1882.5842,-63.5286 1870.612,-52.3338 1860.0329,-42.4417"/>
<polygon fill="#000000" stroke="#000000" points="1862.3234,-39.7917 1852.6287,-35.5182 1857.5424,-44.9047 1862.3234,-39.7917"/>
</g>
<!-- 38 -->
<g id="node38" class="node">
<title>38</title>
<ellipse fill="none" stroke="#000000" cx="1986.8939" cy="-18" rx="65.7887" ry="18"/>
<text text-anchor="middle" x="1986.8939" y="-14.3" font-family="Times,serif" font-size="14.00" fill="#000000">avance(self=...)</text>
</g>
<!-- 35&#45;&gt;38 -->
<g id="edge37" class="edge">
<title>35&#45;&gt;38</title>
<path fill="none" stroke="#000000" d="M1929.2914,-72.5708C1938.836,-63.5286 1950.6526,-52.3338 1961.0944,-42.4417"/>
<polygon fill="#000000" stroke="#000000" points="1963.55,-44.9366 1968.4024,-35.5182 1958.7357,-39.8549 1963.55,-44.9366"/>
</g>
<!-- 39 -->
<g id="node39" class="node">
<title>39</title>
<ellipse fill="none" stroke="#000000" cx="2139.8939" cy="-18" rx="68.7879" ry="18"/>
<text text-anchor="middle" x="2139.8939" y="-14.3" font-family="Times,serif" font-size="14.00" fill="#000000">courant(self=...)</text>
</g>
<!-- 35&#45;&gt;39 -->
<g id="edge38" class="edge">
<title>35&#45;&gt;39</title>
<path fill="none" stroke="#000000" d="M1955.3189,-76.0323C1992.6886,-64.2829 2046.2395,-47.4459 2086.0437,-34.931"/>
<polygon fill="#000000" stroke="#000000" points="2087.1027,-38.2671 2095.5925,-31.9288 2085.0031,-31.5894 2087.1027,-38.2671"/>
</g>
<!-- 41 -->
<g id="node41" class="node">
<title>41</title>
<ellipse fill="none" stroke="#000000" cx="2066.8939" cy="-90" rx="68.7879" ry="18"/>
<text text-anchor="middle" x="2066.8939" y="-86.3" font-family="Times,serif" font-size="14.00" fill="#000000">courant(self=...)</text>
</g>
<!-- 40&#45;&gt;41 -->
<g id="edge40" class="edge">
<title>40&#45;&gt;41</title>
<path fill="none" stroke="#000000" d="M2079.6041,-143.8314C2077.7859,-136.131 2075.6239,-126.9743 2073.6034,-118.4166"/>
<polygon fill="#000000" stroke="#000000" points="2076.9458,-117.3414 2071.2415,-108.4133 2070.1331,-118.95 2076.9458,-117.3414"/>
</g>
<!-- 43 -->
<g id="node43" class="node">
<title>43</title>
<ellipse fill="none" stroke="#000000" cx="2222.8939" cy="-90" rx="68.7879" ry="18"/>
<text text-anchor="middle" x="2222.8939" y="-86.3" font-family="Times,serif" font-size="14.00" fill="#000000">courant(self=...)</text>
</g>
<!-- 42&#45;&gt;43 -->
<g id="edge42" class="edge">
<title>42&#45;&gt;43</title>
<path fill="none" stroke="#000000" d="M2239.3424,-143.8314C2236.9636,-136.0463 2234.1301,-126.7729 2231.4906,-118.1347"/>
<polygon fill="#000000" stroke="#000000" points="2234.7896,-116.954 2228.5202,-108.4133 2228.0952,-118.9996 2234.7896,-116.954"/>
</g>
<!-- 44 -->
<g id="node44" class="node">
<title>44</title>
<ellipse fill="none" stroke="#000000" cx="2375.8939" cy="-90" rx="65.7887" ry="18"/>
<text text-anchor="middle" x="2375.8939" y="-86.3" font-family="Times,serif" font-size="14.00" fill="#000000">avance(self=...)</text>
</g>
<!-- 42&#45;&gt;44 -->
<g id="edge43" class="edge">
<title>42&#45;&gt;44</title>
<path fill="none" stroke="#000000" d="M2274.9479,-145.4817C2293.5516,-135.2568 2317.6146,-122.0314 2337.5804,-111.0578"/>
<polygon fill="#000000" stroke="#000000" points="2339.3534,-114.0772 2346.4312,-106.1933 2335.9817,-107.9427 2339.3534,-114.0772"/>
</g>
<!-- 46 -->
<g id="node46" class="node">
<title>46</title>
<ellipse fill="none" stroke="#000000" cx="2528.8939" cy="-90" rx="68.7879" ry="18"/>
<text text-anchor="middle" x="2528.8939" y="-86.3" font-family="Times,serif" font-size="14.00" fill="#000000">courant(self=...)</text>
</g>
<!-- 45&#45;&gt;46 -->
<g id="edge45" class="edge">
<title>45&#45;&gt;46</title>
<path fill="none" stroke="#000000" d="M2442.1024,-145.3008C2457.537,-135.4663 2477.2535,-122.9036 2493.9925,-112.238"/>
<polygon fill="#000000" stroke="#000000" points="2495.8833,-115.1834 2502.4361,-106.8581 2492.1218,-109.28 2495.8833,-115.1834"/>
</g>
<!-- 48 -->
<g id="node48" class="node">
<title>48</title>
<ellipse fill="none" stroke="#000000" cx="2684.8939" cy="-90" rx="69.5877" ry="18"/>
<text text-anchor="middle" x="2684.8939" y="-86.3" font-family="Times,serif" font-size="14.00" fill="#000000">nombre(self=...)</text>
</g>
<!-- 47&#45;&gt;48 -->
<g id="edge47" class="edge">
<title>47&#45;&gt;48</title>
<path fill="none" stroke="#000000" d="M2630.6916,-144.2022C2639.585,-135.3088 2650.4897,-124.4042 2660.1804,-114.7135"/>
<polygon fill="#000000" stroke="#000000" points="2662.7046,-117.139 2667.3009,-107.593 2657.7549,-112.1892 2662.7046,-117.139"/>
</g>
<!-- 49 -->
<g id="node49" class="node">
<title>49</title>
<ellipse fill="none" stroke="#000000" cx="2451.8939" cy="-18" rx="68.7879" ry="18"/>
<text text-anchor="middle" x="2451.8939" y="-14.3" font-family="Times,serif" font-size="14.00" fill="#000000">courant(self=...)</text>
</g>
<!-- 48&#45;&gt;49 -->
<g id="edge48" class="edge">
<title>48&#45;&gt;49</title>
<path fill="none" stroke="#000000" d="M2639.9691,-76.1177C2601.8529,-64.3393 2547.0473,-47.4036 2506.4229,-34.8502"/>
<polygon fill="#000000" stroke="#000000" points="2507.2683,-31.4482 2496.6807,-31.8397 2505.2016,-38.1361 2507.2683,-31.4482"/>
</g>
<!-- 50 -->
<g id="node50" class="node">
<title>50</title>
<ellipse fill="none" stroke="#000000" cx="2607.8939" cy="-18" rx="68.7879" ry="18"/>
<text text-anchor="middle" x="2607.8939" y="-14.3" font-family="Times,serif" font-size="14.00" fill="#000000">courant(self=...)</text>
</g>
<!-- 48&#45;&gt;50 -->
<g id="edge49" class="edge">
<title>48&#45;&gt;50</title>
<path fill="none" stroke="#000000" d="M2666.2543,-72.5708C2656.5842,-63.5286 2644.612,-52.3338 2634.0329,-42.4417"/>
<polygon fill="#000000" stroke="#000000" points="2636.3234,-39.7917 2626.6287,-35.5182 2631.5424,-44.9047 2636.3234,-39.7917"/>
</g>
<!-- 51 -->
<g id="node51" class="node">
<title>51</title>
<ellipse fill="none" stroke="#000000" cx="2760.8939" cy="-18" rx="65.7887" ry="18"/>
<text text-anchor="middle" x="2760.8939" y="-14.3" font-family="Times,serif" font-size="14.00" fill="#000000">avance(self=...)</text>
</g>
<!-- 48&#45;&gt;51 -->
<g id="edge50" class="edge">
<title>48&#45;&gt;51</title>
<path fill="none" stroke="#000000" d="M2703.2914,-72.5708C2712.836,-63.5286 2724.6526,-52.3338 2735.0944,-42.4417"/>
<polygon fill="#000000" stroke="#000000" points="2737.55,-44.9366 2742.4024,-35.5182 2732.7357,-39.8549 2737.55,-44.9366"/>
</g>
<!-- 52 -->
<g id="node52" class="node">
<title>52</title>
<ellipse fill="none" stroke="#000000" cx="2913.8939" cy="-18" rx="68.7879" ry="18"/>
<text text-anchor="middle" x="2913.8939" y="-14.3" font-family="Times,serif" font-size="14.00" fill="#000000">courant(self=...)</text>
</g>
<!-- 48&#45;&gt;52 -->
<g id="edge51" class="edge">
<title>48&#45;&gt;52</title>
<path fill="none" stroke="#000000" d="M2729.3189,-76.0323C2766.6886,-64.2829 2820.2395,-47.4459 2860.0437,-34.931"/>
<polygon fill="#000000" stroke="#000000" points="2861.1027,-38.2671 2869.5925,-31.9288 2859.0031,-31.5894 2861.1027,-38.2671"/>
</g>
<!-- 54 -->
<g id="node54" class="node">
<title>54</title>
<ellipse fill="none" stroke="#000000" cx="2840.8939" cy="-90" rx="68.7879" ry="18"/>
<text text-anchor="middle" x="2840.8939" y="-86.3" font-family="Times,serif" font-size="14.00" fill="#000000">courant(self=...)</text>
</g>
<!-- 53&#45;&gt;54 -->
<g id="edge53" class="edge">
<title>53&#45;&gt;54</title>
<path fill="none" stroke="#000000" d="M2840.8939,-143.8314C2840.8939,-136.131 2840.8939,-126.9743 2840.8939,-118.4166"/>
<polygon fill="#000000" stroke="#000000" points="2844.394,-118.4132 2840.8939,-108.4133 2837.394,-118.4133 2844.394,-118.4132"/>
</g>
<!-- 55 -->
<g id="node55" class="node">
<title>55</title>
<ellipse fill="none" stroke="#000000" cx="2993.8939" cy="-90" rx="65.7887" ry="18"/>
<text text-anchor="middle" x="2993.8939" y="-86.3" font-family="Times,serif" font-size="14.00" fill="#000000">avance(self=...)</text>
</g>
<!-- 53&#45;&gt;55 -->
<g id="edge54" class="edge">
<title>53&#45;&gt;55</title>
<path fill="none" stroke="#000000" d="M2877.5412,-144.7542C2899.7635,-134.2967 2928.2105,-120.9098 2951.4139,-109.9906"/>
<polygon fill="#000000" stroke="#000000" points="2953.1181,-113.0568 2960.676,-105.6319 2950.1375,-106.7231 2953.1181,-113.0568"/>
</g>
<!-- 57 -->
<g id="node57" class="node">
<title>57</title>
<ellipse fill="none" stroke="#000000" cx="2249.8939" cy="-234" rx="68.7879" ry="18"/>
<text text-anchor="middle" x="2249.8939" y="-230.3" font-family="Times,serif" font-size="14.00" fill="#000000">courant(self=...)</text>
</g>
<!-- 56&#45;&gt;57 -->
<g id="edge56" class="edge">
<title>56&#45;&gt;57</title>
<path fill="none" stroke="#000000" d="M2249.8939,-287.8314C2249.8939,-280.131 2249.8939,-270.9743 2249.8939,-262.4166"/>
<polygon fill="#000000" stroke="#000000" points="2253.394,-262.4132 2249.8939,-252.4133 2246.394,-262.4133 2253.394,-262.4132"/>
</g>
<!-- 58 -->
<g id="node58" class="node">
<title>58</title>
<ellipse fill="none" stroke="#000000" cx="2402.8939" cy="-234" rx="65.7887" ry="18"/>
<text text-anchor="middle" x="2402.8939" y="-230.3" font-family="Times,serif" font-size="14.00" fill="#000000">avance(self=...)</text>
</g>
<!-- 56&#45;&gt;58 -->
<g id="edge57" class="edge">
<title>56&#45;&gt;58</title>
<path fill="none" stroke="#000000" d="M2286.5412,-288.7542C2308.7635,-278.2967 2337.2105,-264.9098 2360.4139,-253.9906"/>
<polygon fill="#000000" stroke="#000000" points="2362.1181,-257.0568 2369.676,-249.6319 2359.1375,-250.7231 2362.1181,-257.0568"/>
</g>
</g>
</svg>
