<?xml version="1.0" encoding="UTF-8" standalone="no"?>
<!DOCTYPE svg PUBLIC "-//W3C//DTD SVG 1.1//EN"
 "http://www.w3.org/Graphics/SVG/1.1/DTD/svg11.dtd">
<!-- Generated by graphviz version 2.40.1 (20161225.0304)
 -->
<!-- Title: %3 Pages: 1 -->
<svg width="634pt" height="188pt"
 viewBox="0.00 0.00 634.34 188.00" xmlns="http://www.w3.org/2000/svg" xmlns:xlink="http://www.w3.org/1999/xlink">
<g id="graph0" class="graph" transform="scale(1 1) rotate(0) translate(4 184)">
<title>%3</title>
<polygon fill="#ffffff" stroke="transparent" points="-4,4 -4,-184 630.3408,-184 630.3408,4 -4,4"/>
<!-- 1 -->
<g id="node1" class="node">
<title>1</title>
<ellipse fill="none" stroke="#000000" cx="220.7457" cy="-162" rx="48.9926" ry="18"/>
<text text-anchor="middle" x="220.7457" y="-158.3" font-family="Times,serif" font-size="14.00" fill="#000000">pado(n=6)</text>
</g>
<!-- 2 -->
<g id="node2" class="node">
<title>2</title>
<ellipse fill="none" stroke="#000000" cx="163.7457" cy="-90" rx="48.9926" ry="18"/>
<text text-anchor="middle" x="163.7457" y="-86.3" font-family="Times,serif" font-size="14.00" fill="#000000">pado(n=3)</text>
</g>
<!-- 1&#45;&gt;2 -->
<g id="edge1" class="edge">
<title>1&#45;&gt;2</title>
<path fill="none" stroke="#000000" d="M206.9476,-144.5708C200.0671,-135.8797 191.6124,-125.2001 184.0122,-115.5998"/>
<polygon fill="#000000" stroke="#000000" points="186.5655,-113.1862 177.6143,-107.5182 181.0772,-117.5312 186.5655,-113.1862"/>
</g>
<!-- 5 -->
<g id="node5" class="node">
<title>5</title>
<ellipse fill="none" stroke="#000000" cx="278.7457" cy="-90" rx="48.9926" ry="18"/>
<text text-anchor="middle" x="278.7457" y="-86.3" font-family="Times,serif" font-size="14.00" fill="#000000">pado(n=4)</text>
</g>
<!-- 1&#45;&gt;5 -->
<g id="edge4" class="edge">
<title>1&#45;&gt;5</title>
<path fill="none" stroke="#000000" d="M234.7859,-144.5708C241.9101,-135.7269 250.6931,-124.8239 258.5307,-115.0945"/>
<polygon fill="#000000" stroke="#000000" points="261.2871,-117.2519 264.8348,-107.2687 255.8358,-112.8606 261.2871,-117.2519"/>
</g>
<!-- 3 -->
<g id="node3" class="node">
<title>3</title>
<ellipse fill="none" stroke="#000000" cx="48.7457" cy="-18" rx="48.9926" ry="18"/>
<text text-anchor="middle" x="48.7457" y="-14.3" font-family="Times,serif" font-size="14.00" fill="#000000">pado(n=0)</text>
</g>
<!-- 2&#45;&gt;3 -->
<g id="edge2" class="edge">
<title>2&#45;&gt;3</title>
<path fill="none" stroke="#000000" d="M138.7924,-74.3771C122.2156,-63.9986 100.2577,-50.251 82.1752,-38.9298"/>
<polygon fill="#000000" stroke="#000000" points="83.9834,-35.9325 73.6503,-33.5924 80.2688,-41.8656 83.9834,-35.9325"/>
</g>
<!-- 4 -->
<g id="node4" class="node">
<title>4</title>
<ellipse fill="none" stroke="#000000" cx="163.7457" cy="-18" rx="48.9926" ry="18"/>
<text text-anchor="middle" x="163.7457" y="-14.3" font-family="Times,serif" font-size="14.00" fill="#000000">pado(n=1)</text>
</g>
<!-- 2&#45;&gt;4 -->
<g id="edge3" class="edge">
<title>2&#45;&gt;4</title>
<path fill="none" stroke="#000000" d="M163.7457,-71.8314C163.7457,-64.131 163.7457,-54.9743 163.7457,-46.4166"/>
<polygon fill="#000000" stroke="#000000" points="167.2458,-46.4132 163.7457,-36.4133 160.2458,-46.4133 167.2458,-46.4132"/>
</g>
<!-- 6 -->
<g id="node6" class="node">
<title>6</title>
<ellipse fill="none" stroke="#000000" cx="278.7457" cy="-18" rx="48.9926" ry="18"/>
<text text-anchor="middle" x="278.7457" y="-14.3" font-family="Times,serif" font-size="14.00" fill="#000000">pado(n=1)</text>
</g>
<!-- 5&#45;&gt;6 -->
<g id="edge5" class="edge">
<title>5&#45;&gt;6</title>
<path fill="none" stroke="#000000" d="M278.7457,-71.8314C278.7457,-64.131 278.7457,-54.9743 278.7457,-46.4166"/>
<polygon fill="#000000" stroke="#000000" points="282.2458,-46.4132 278.7457,-36.4133 275.2458,-46.4133 282.2458,-46.4132"/>
</g>
<!-- 7 -->
<g id="node7" class="node">
<title>7</title>
<ellipse fill="none" stroke="#000000" cx="393.7457" cy="-18" rx="48.9926" ry="18"/>
<text text-anchor="middle" x="393.7457" y="-14.3" font-family="Times,serif" font-size="14.00" fill="#000000">pado(n=2)</text>
</g>
<!-- 5&#45;&gt;7 -->
<g id="edge6" class="edge">
<title>5&#45;&gt;7</title>
<path fill="none" stroke="#000000" d="M303.699,-74.3771C320.2757,-63.9986 342.2337,-50.251 360.3161,-38.9298"/>
<polygon fill="#000000" stroke="#000000" points="362.2226,-41.8656 368.8411,-33.5924 358.5079,-35.9325 362.2226,-41.8656"/>
</g>
<!-- 8 -->
<g id="node8" class="node">
<title>8</title>
<ellipse fill="none" stroke="#000000" cx="450.7457" cy="-162" rx="48.9926" ry="18"/>
<text text-anchor="middle" x="450.7457" y="-158.3" font-family="Times,serif" font-size="14.00" fill="#000000">pado(n=4)</text>
</g>
<!-- 9 -->
<g id="node9" class="node">
<title>9</title>
<ellipse fill="none" stroke="#000000" cx="393.7457" cy="-90" rx="48.9926" ry="18"/>
<text text-anchor="middle" x="393.7457" y="-86.3" font-family="Times,serif" font-size="14.00" fill="#000000">pado(n=1)</text>
</g>
<!-- 8&#45;&gt;9 -->
<g id="edge7" class="edge">
<title>8&#45;&gt;9</title>
<path fill="none" stroke="#000000" d="M436.9476,-144.5708C430.0671,-135.8797 421.6124,-125.2001 414.0122,-115.5998"/>
<polygon fill="#000000" stroke="#000000" points="416.5655,-113.1862 407.6143,-107.5182 411.0772,-117.5312 416.5655,-113.1862"/>
</g>
<!-- 10 -->
<g id="node10" class="node">
<title>10</title>
<ellipse fill="none" stroke="#000000" cx="508.7457" cy="-90" rx="48.9926" ry="18"/>
<text text-anchor="middle" x="508.7457" y="-86.3" font-family="Times,serif" font-size="14.00" fill="#000000">pado(n=2)</text>
</g>
<!-- 8&#45;&gt;10 -->
<g id="edge8" class="edge">
<title>8&#45;&gt;10</title>
<path fill="none" stroke="#000000" d="M464.7859,-144.5708C471.9101,-135.7269 480.6931,-124.8239 488.5307,-115.0945"/>
<polygon fill="#000000" stroke="#000000" points="491.2871,-117.2519 494.8348,-107.2687 485.8358,-112.8606 491.2871,-117.2519"/>
</g>
<!-- 11 -->
<g id="node11" class="node">
<title>11</title>
<ellipse fill="none" stroke="#000000" cx="571.7457" cy="-162" rx="54.6905" ry="18"/>
<text text-anchor="middle" x="571.7457" y="-158.3" font-family="Times,serif" font-size="14.00" fill="#000000">square(x=3)</text>
</g>
</g>
</svg>
