<?xml version="1.0" encoding="UTF-8" standalone="no"?>
<!DOCTYPE svg PUBLIC "-//W3C//DTD SVG 1.1//EN"
 "http://www.w3.org/Graphics/SVG/1.1/DTD/svg11.dtd">
<!-- Generated by graphviz version 2.40.1 (20161225.0304)
 -->
<!-- Title: %3 Pages: 1 -->
<svg width="131pt" height="188pt"
 viewBox="0.00 0.00 131.49 188.00" xmlns="http://www.w3.org/2000/svg" xmlns:xlink="http://www.w3.org/1999/xlink">
<g id="graph0" class="graph" transform="scale(1 1) rotate(0) translate(4 184)">
<title>%3</title>
<polygon fill="#ffffff" stroke="transparent" points="-4,4 -4,-184 127.489,-184 127.489,4 -4,4"/>
<!-- 1 -->
<g id="node1" class="node">
<title>1</title>
<ellipse fill="none" stroke="#000000" cx="61.7445" cy="-162" rx="61.99" ry="18"/>
<text text-anchor="middle" x="61.7445" y="-158.3" font-family="Times,serif" font-size="14.00" fill="#000000">factorial(n=3)</text>
</g>
<!-- 2 -->
<g id="node2" class="node">
<title>2</title>
<ellipse fill="none" stroke="#000000" cx="61.7445" cy="-90" rx="61.99" ry="18"/>
<text text-anchor="middle" x="61.7445" y="-86.3" font-family="Times,serif" font-size="14.00" fill="#000000">factorial(n=2)</text>
</g>
<!-- 1&#45;&gt;2 -->
<g id="edge1" class="edge">
<title>1&#45;&gt;2</title>
<path fill="none" stroke="#000000" d="M61.7445,-143.8314C61.7445,-136.131 61.7445,-126.9743 61.7445,-118.4166"/>
<polygon fill="#000000" stroke="#000000" points="65.2446,-118.4132 61.7445,-108.4133 58.2446,-118.4133 65.2446,-118.4132"/>
</g>
<!-- 3 -->
<g id="node3" class="node">
<title>3</title>
<ellipse fill="none" stroke="#000000" cx="61.7445" cy="-18" rx="61.99" ry="18"/>
<text text-anchor="middle" x="61.7445" y="-14.3" font-family="Times,serif" font-size="14.00" fill="#000000">factorial(n=1)</text>
</g>
<!-- 2&#45;&gt;3 -->
<g id="edge2" class="edge">
<title>2&#45;&gt;3</title>
<path fill="none" stroke="#000000" d="M61.7445,-71.8314C61.7445,-64.131 61.7445,-54.9743 61.7445,-46.4166"/>
<polygon fill="#000000" stroke="#000000" points="65.2446,-46.4132 61.7445,-36.4133 58.2446,-46.4133 65.2446,-46.4132"/>
</g>
</g>
</svg>
